<svg width="43" height="49" viewBox="0 0 43 49" fill="none" xmlns="http://www.w3.org/2000/svg">
<rect width="43" height="49" rx="10" fill="#CE3016"/>
<path d="M11.14 18.44H14.54V30.18H20.34L20.18 33H11.14V18.44ZM28.5645 33.24C27.2712 33.24 26.1645 33.0467 25.2445 32.66C24.3245 32.26 23.5712 31.72 22.9845 31.04C22.3979 30.3467 21.9645 29.56 21.6845 28.68C21.4179 27.7867 21.2845 26.8533 21.2845 25.88C21.2845 24.3067 21.5912 22.9467 22.2045 21.8C22.8179 20.6533 23.6845 19.7667 24.8045 19.14C25.9245 18.5133 27.2245 18.2 28.7045 18.2C29.4645 18.2 30.1712 18.2667 30.8245 18.4C31.4912 18.52 32.0045 18.6667 32.3645 18.84L31.9645 21.56C31.5512 21.4 31.0779 21.2667 30.5445 21.16C30.0245 21.0533 29.4845 21 28.9245 21C28.1379 21 27.4312 21.1733 26.8045 21.52C26.1912 21.8667 25.7112 22.3867 25.3645 23.08C25.0179 23.7733 24.8445 24.66 24.8445 25.74C24.8445 26.74 25.0045 27.5933 25.3245 28.3C25.6445 28.9933 26.1112 29.5267 26.7245 29.9C27.3512 30.26 28.0979 30.44 28.9645 30.44C29.4579 30.44 29.9712 30.3933 30.5045 30.3C31.0512 30.2067 31.5245 30.08 31.9245 29.92L32.2445 32.62C31.8845 32.78 31.3712 32.92 30.7045 33.04C30.0379 33.1733 29.3245 33.24 28.5645 33.24Z" fill="black"/>
</svg>
